<?xml version="1.0" standalone="no"?>
<!DOCTYPE svg PUBLIC "-//W3C//DTD SVG 20010904//EN"
 "http://www.w3.org/TR/2001/REC-SVG-20010904/DTD/svg10.dtd">
<svg version="1.0" xmlns="http://www.w3.org/2000/svg"
 width="102.000000pt" height="102.000000pt" viewBox="0 0 102.000000 102.000000"
 preserveAspectRatio="xMidYMid meet">
<metadata>
Created by potrace 1.11, written by Peter Selinger 2001-2013
</metadata>
<g transform="translate(0.000000,102.000000) scale(0.100000,-0.100000)"
fill="#000000" stroke="none">
<path d="M110 510 l0 -510 405 0 405 0 0 510 0 510 -405 0 -405 0 0 -510z
m700 315 l0 -25 -290 0 -290 0 0 25 0 25 290 0 290 0 0 -25z m0 -160 l0 -25
-290 0 -290 0 0 25 0 25 290 0 290 0 0 -25z m0 -160 l0 -25 -290 0 -290 0 0
25 0 25 290 0 290 0 0 -25z m0 -160 l0 -25 -290 0 -290 0 0 25 0 25 290 0 290
0 0 -25z m-220 -160 l0 -25 -180 0 -180 0 0 25 0 25 180 0 180 0 0 -25z"/>
</g>
</svg>
